<?xml version="1.0" encoding="UTF-8"?>
<svg version="1.1" xmlns="http://www.w3.org/2000/svg" width="364" height="364">
<path d="M0 0 C0.780905 -0.00705963 1.56181 -0.01411926 2.36637878 -0.02139282 C34.48440227 -0.24591212 34.48440227 -0.24591212 48.57421875 3.203125 C49.41694336 3.39648438 50.25966797 3.58984375 51.12792969 3.7890625 C82.06150374 10.98653323 110.21756248 25.59322526 133.47265625 47.25390625 C135.35349542 48.99840206 137.28039906 50.63780068 139.26171875 52.265625 C170.01646398 78.47213326 188.82359667 123.7399344 192.57421875 163.203125 C192.72043404 166.01225759 192.76037865 168.81629062 192.77734375 171.62890625 C192.7879332 172.80026375 192.7879332 172.80026375 192.79873657 173.99528503 C193.02325587 206.11330852 193.02325587 206.11330852 189.57421875 220.203125 C189.38085938 221.04584961 189.1875 221.88857422 188.98828125 222.75683594 C181.79081052 253.69040999 167.18411849 281.84646873 145.5234375 305.1015625 C143.77894169 306.98240167 142.13954307 308.90930531 140.51171875 310.890625 C114.30521049 341.64537023 69.03740935 360.45250292 29.57421875 364.203125 C26.76508616 364.34934029 23.96105313 364.3892849 21.1484375 364.40625 C20.3675325 364.41330963 19.5866275 364.42036926 18.78205872 364.42764282 C-13.33596477 364.65216212 -13.33596477 364.65216212 -27.42578125 361.203125 C-28.26850586 361.00976562 -29.11123047 360.81640625 -29.97949219 360.6171875 C-60.91306624 353.41971677 -89.06912498 338.81302474 -112.32421875 317.15234375 C-114.20505792 315.40784794 -116.13196156 313.76844932 -118.11328125 312.140625 C-148.86802648 285.93411674 -167.67515917 240.6663156 -171.42578125 201.203125 C-171.57199654 198.39399241 -171.61194115 195.58995938 -171.62890625 192.77734375 C-171.6394957 191.60598625 -171.6394957 191.60598625 -171.65029907 190.41096497 C-171.87481837 158.29294148 -171.87481837 158.29294148 -168.42578125 144.203125 C-168.23242188 143.36040039 -168.0390625 142.51767578 -167.83984375 141.64941406 C-160.64237302 110.71584001 -146.03568099 82.55978127 -124.375 59.3046875 C-122.63050419 57.42384833 -120.99110557 55.49694469 -119.36328125 53.515625 C-91.91662474 21.30549918 -41.80168536 0.25213889 0 0 Z " fill="#010102" transform="translate(171.42578125,-0.203125)"/>
<path d="M0 0 C1.421875 1.85546875 1.421875 1.85546875 2.75 4.1875 C6.54601202 10.20183642 12.02580292 14.95735845 18.765625 17.5234375 C27.28925375 19.34141426 36.16228721 19.1448447 43.77734375 14.6953125 C48.94870876 10.75089701 53.3025093 5.947967 56 0 C62.02245759 1.07303756 67.626313 3.20352041 73.375 5.25 C75.04175781 5.82427734 75.04175781 5.82427734 76.7421875 6.41015625 C83.85964629 8.94363265 90.1125637 11.36741884 94.9375 17.4375 C96.26829555 20.64706574 96.48361552 22.54560342 96 26 C94.83842737 28.49411267 93.48997952 30.671907 92 33 C91.566875 32.360625 91.13375 31.72125 90.6875 31.0625 C89.08760823 28.73253997 89.08760823 28.73253997 86 28 C86 28.66 86 29.32 86 30 C86.99 30 87.98 30 89 30 C89.375 32.1875 89.375 32.1875 89 35 C87.16038352 36.99022836 85.20813852 38.38989899 83 40 C83.33 37.03 83.66 34.06 84 31 C82.2505382 37.40215071 82.2505382 37.40215071 82 44 C82.38671875 43.50628906 82.7734375 43.01257812 83.171875 42.50390625 C83.69265625 41.86324219 84.2134375 41.22257812 84.75 40.5625 C85.26046875 39.92441406 85.7709375 39.28632812 86.296875 38.62890625 C88.2227228 36.78698301 89.44454001 36.53738464 92 36 C92.10133362 43.75948954 92.17143783 51.51880876 92.21972656 59.27880859 C92.23985475 61.91917294 92.26715987 64.55949265 92.30175781 67.19970703 C92.3502205 70.99262501 92.3729572 74.78495416 92.390625 78.578125 C92.41127014 79.76053772 92.43191528 80.94295044 92.45318604 82.16119385 C92.45348816 83.26203308 92.45379028 84.36287231 92.45410156 85.49707031 C92.46298401 86.46525696 92.47186646 87.4334436 92.48101807 88.43096924 C91.83618768 91.87489204 90.84351489 92.97155256 88 95 C84.535 95.495 84.535 95.495 81 96 C80.67 88.08 80.34 80.16 80 72 C79.938125 75.63 79.87625 79.26 79.8125 83 C79.473285 92.52029482 78.39967845 100.44650896 74.98242188 109.37890625 C73.70942394 112.77525462 72.52005371 116.19961971 71.328125 119.625 C69.40883742 125.12147098 67.48156908 130.61488781 65.5234375 136.09765625 C65.11013184 137.25789307 64.69682617 138.41812988 64.27099609 139.61352539 C62.95070985 143.13132995 61.5055379 146.55818373 60 150 C63.68601606 143.08123667 66.3818679 135.92117673 69.0625 128.5625 C69.49626953 127.38623047 69.93003906 126.20996094 70.37695312 124.99804688 C72.6908222 118.69742013 74.91845244 112.38113759 77 106 C77.66 106 78.32 106 79 106 C79.85481943 122.71646876 76.10966093 135.64039908 68 150 C67.62020996 150.68030273 67.24041992 151.36060547 66.84912109 152.06152344 C64.60873935 156.06662202 62.3245997 160.04323455 60 164 C61.32832272 162.67167728 62.11904583 161.19047922 63.07421875 159.5703125 C63.49203613 158.86189209 63.90985352 158.15347168 64.34033203 157.42358398 C64.78489746 156.66505127 65.22946289 155.90651855 65.6875 155.125 C66.13722168 154.35937744 66.58694336 153.59375488 67.05029297 152.80493164 C70.48620882 146.93179792 73.80713835 141.00932905 77 135 C77.66 135 78.32 135 79 135 C80.17473246 143.39094615 76.30277663 150.06730195 72 157 C69.53465047 159.94126918 66.94226822 162.53919385 64 165 C68.09529452 161.77340432 72.05692685 158.40899696 76 155 C77.26582219 158.86723631 77.1118765 162.73151262 77.0625 166.75 C77.05798828 167.44738281 77.05347656 168.14476562 77.04882812 168.86328125 C77.0371002 170.57555803 77.01916653 172.28779033 77 174 C75.61941406 174.32871094 75.61941406 174.32871094 74.2109375 174.6640625 C67.46452803 176.3540999 61.18336437 178.20806803 54.8125 181.0625 C36.05504098 189.46516264 16.8252176 189.63628196 -2.80688477 184.47851562 C-3.83060181 184.21071289 -3.83060181 184.21071289 -4.875 183.9375 C-5.55038818 183.76025391 -6.22577637 183.58300781 -6.92163086 183.40039062 C-13.23369296 181.81047339 -19.49608414 181.22273684 -26 181 C-26.96088383 178.11734851 -27.11670941 176.32337729 -27.09765625 173.33203125 C-27.09443359 172.43935547 -27.09121094 171.54667969 -27.08789062 170.62695312 C-27.07951172 169.69818359 -27.07113281 168.76941406 -27.0625 167.8125 C-27.05798828 166.87212891 -27.05347656 165.93175781 -27.04882812 164.96289062 C-27.03704626 162.64186288 -27.02059558 160.32096356 -27 158 C-26.44650879 158.25168945 -25.89301758 158.50337891 -25.32275391 158.76269531 C-22.75787484 159.92743332 -20.19144965 161.08872704 -17.625 162.25 C-16.75488281 162.64574219 -15.88476562 163.04148438 -14.98828125 163.44921875 C-4.85444883 168.67909306 -4.85444883 168.67909306 6 171 C5.46221924 170.78907715 4.92443848 170.5781543 4.37036133 170.36083984 C-26.3625498 158.2749004 -26.3625498 158.2749004 -28 155 C-28.03097226 151.71694052 -27.9324438 148.44580835 -27.83984375 145.1640625 C-27.9977253 142.04493925 -28.51948457 140.65689397 -30 138 C-30.19569268 134.28183899 -30.17990239 131.53970718 -29 128 C-29.00571344 125.43180773 -29.05235385 122.8785494 -29.125 120.3125 C-29.22911 114.21384562 -28.74611726 109.49223452 -26 104 C-23.9869975 107.01950375 -23.39467281 109.02866952 -22.5 112.5 C-18.6814453 125.28572246 -10.34152453 145.34078863 1 153 C0.5153125 152.45214844 0.030625 151.90429688 -0.46875 151.33984375 C-6.5535749 144.14336815 -10.96029967 136.45210495 -15 128 C-15.2976123 127.37834961 -15.59522461 126.75669922 -15.90185547 126.11621094 C-20.32027664 116.65837466 -23.42953269 106.81426523 -26.375 96.8125 C-26.72111328 95.66112549 -27.06722656 94.50975098 -27.42382812 93.32348633 C-29.44869541 86.19942294 -30.48957107 79.46686942 -30.81103516 72.06518555 C-30.91475717 69.09517957 -30.91475717 69.09517957 -31.52368164 66.62451172 C-32.19375357 62.93241882 -32.04281028 59.29294487 -31.95703125 55.55859375 C-31.93465495 53.90691288 -31.91319826 52.25521935 -31.89257812 50.60351562 C-31.85541593 48.01372901 -31.81220572 45.4245915 -31.75317383 42.83520508 C-31.69870863 40.32623838 -31.66960695 37.81800349 -31.64453125 35.30859375 C-31.62074905 34.53559433 -31.59696686 33.76259491 -31.57246399 32.96617126 C-31.55522056 29.42777429 -31.68683598 27.41934392 -33.8347168 24.54321289 C-36.00878021 22.83424775 -36.00878021 22.83424775 -39 22 C-39 23.98 -39 25.96 -39 28 C-39.66 28 -40.32 28 -41 28 C-42.81863862 25.32553144 -42.99685079 23.91497146 -42.875 20.625 C-41.86527593 16.44185742 -40.86601285 14.22426446 -38 11 C-33.3094448 8.1838202 -28.45149647 6.86512425 -23.16308594 5.58447266 C-18.67048801 4.3705585 -14.3429006 2.61872171 -10.00390625 0.94726562 C-3.70433666 -1.37690233 -3.70433666 -1.37690233 0 0 Z " fill="#5D16E9" transform="translate(157,16)"/>
<path d="M0 0 C0.780905 -0.00705963 1.56181 -0.01411926 2.36637878 -0.02139282 C34.48440227 -0.24591212 34.48440227 -0.24591212 48.57421875 3.203125 C49.41694336 3.39648438 50.25966797 3.58984375 51.12792969 3.7890625 C82.06150374 10.98653323 110.21756248 25.59322526 133.47265625 47.25390625 C135.35349542 48.99840206 137.28039906 50.63780068 139.26171875 52.265625 C169.56614544 78.08841112 188.03261961 122.28461481 192.42407227 161.08154297 C192.74506136 165.61714497 192.67548114 170.15898017 192.63671875 174.703125 C192.63220703 175.71632812 192.62769531 176.72953125 192.62304688 177.7734375 C192.61136468 180.25006327 192.59498457 182.72656157 192.57421875 185.203125 C191.96449219 184.43355469 191.35476563 183.66398438 190.7265625 182.87109375 C184.88917076 175.6352706 180.77480291 173.28554667 171.57421875 172.203125 C171.49945313 171.50832031 171.4246875 170.81351563 171.34765625 170.09765625 C167.4803499 140.18290416 154.63515022 110.76262013 134.57421875 88.203125 C133.88070313 87.38972656 133.1871875 86.57632813 132.47265625 85.73828125 C121.99961947 73.68476801 110.26018115 63.39251907 96.41796875 55.375 C87.60387251 50.2257122 87.60387251 50.2257122 86.03515625 44.3828125 C85.88304687 43.66351563 85.7309375 42.94421875 85.57421875 42.203125 C83.41794032 33.66758953 83.41794032 33.66758953 77.57421875 27.203125 C76.68996216 26.46811768 76.68996216 26.46811768 75.7878418 25.71826172 C73.15331602 23.91503386 70.6043166 22.9603942 67.59375 21.8984375 C65.84674805 21.27001953 65.84674805 21.27001953 64.06445312 20.62890625 C61.63244566 19.7687273 59.20015839 18.90933899 56.76757812 18.05078125 C50.63827006 15.84463514 44.98789007 13.60032979 39.50292969 10.05566406 C36.46411277 8.71243005 34.06294809 9.4797644 31.0078125 10.4921875 C19.91990963 13.73135014 6.0790631 13.97287486 -4.37109375 9.046875 C-7.7667086 7.65247803 -9.96371053 8.15213925 -13.42578125 9.203125 C-15.74132066 10.33178251 -18.01144486 11.53494574 -20.2890625 12.73828125 C-28.83581009 16.72960173 -38.16085792 19.32400822 -47.23828125 21.828125 C-52.19355795 23.33846619 -55.17117582 24.9286941 -57.76171875 29.625 C-59.76359383 33.81389467 -61.47785805 37.91508395 -62.48828125 42.453125 C-64.43864014 50.25456057 -66.72663875 53.02689398 -73.55078125 57.140625 C-74.71860943 57.820554 -75.88657867 58.50024078 -77.0546875 59.1796875 C-96.26762397 70.71190197 -111.34554124 88.68512375 -123.42578125 107.203125 C-124.3075 108.53150391 -124.3075 108.53150391 -125.20703125 109.88671875 C-136.89115133 128.3140677 -143.67697413 150.75519572 -146.42578125 172.203125 C-147.07804687 172.30109375 -147.7303125 172.3990625 -148.40234375 172.5 C-155.58272697 173.72850214 -160.18647461 175.31559802 -164.80078125 181.265625 C-167.85069697 187.19956143 -167.09832389 193.78988377 -165.36328125 200.015625 C-162.4711576 204.77363487 -159.38270834 208.39842543 -153.85375977 209.90307617 C-152.97131592 210.05752197 -152.08887207 210.21196777 -151.1796875 210.37109375 C-150.28709229 210.53246826 -149.39449707 210.69384277 -148.47485352 210.86010742 C-147.46056274 211.02990112 -147.46056274 211.02990112 -146.42578125 211.203125 C-146.32031982 211.75661621 -146.2148584 212.31010742 -146.10620117 212.88037109 C-138.82559824 250.84379715 -122.36346821 288.40347513 -91.42578125 313.203125 C-90.91257324 313.62287598 -90.39936523 314.04262695 -89.87060547 314.47509766 C-60.48456288 338.32067271 -25.97386834 350.70175826 11.76171875 350.515625 C12.53046326 350.51380219 13.29920776 350.51197937 14.09124756 350.51010132 C25.80129607 350.46340956 37.1517298 350.00497164 48.57421875 347.203125 C49.26999023 347.03683594 49.96576172 346.87054688 50.68261719 346.69921875 C81.85665047 338.99488101 113.21061184 321.35304977 133.57421875 296.203125 C134.321875 295.29304688 135.06953125 294.38296875 135.83984375 293.4453125 C154.94274709 269.4765753 166.91069407 241.5160354 171.57421875 211.203125 C172.15429688 211.10515625 172.734375 211.0071875 173.33203125 210.90625 C180.04775368 209.62073218 184.63350343 207.84465418 188.82421875 202.140625 C189.40171875 201.17125 189.97921875 200.201875 190.57421875 199.203125 C191.23421875 198.213125 191.89421875 197.223125 192.57421875 196.203125 C191.73763944 235.82656332 172.97799272 273.71845556 147.57421875 303.203125 C147.10419434 303.74904297 146.63416992 304.29496094 146.14990234 304.85742188 C117.12807458 338.2720272 73.57768507 360.02099046 29.57421875 364.203125 C26.76508616 364.34934029 23.96105313 364.3892849 21.1484375 364.40625 C20.3675325 364.41330963 19.5866275 364.42036926 18.78205872 364.42764282 C-13.33596477 364.65216212 -13.33596477 364.65216212 -27.42578125 361.203125 C-28.26850586 361.00976562 -29.11123047 360.81640625 -29.97949219 360.6171875 C-60.91306624 353.41971677 -89.06912498 338.81302474 -112.32421875 317.15234375 C-114.20505792 315.40784794 -116.13196156 313.76844932 -118.11328125 312.140625 C-148.86802648 285.93411674 -167.67515917 240.6663156 -171.42578125 201.203125 C-171.57199654 198.39399241 -171.61194115 195.58995938 -171.62890625 192.77734375 C-171.6394957 191.60598625 -171.6394957 191.60598625 -171.65029907 190.41096497 C-171.87481837 158.29294148 -171.87481837 158.29294148 -168.42578125 144.203125 C-168.23242188 143.36040039 -168.0390625 142.51767578 -167.83984375 141.64941406 C-160.64237302 110.71584001 -146.03568099 82.55978127 -124.375 59.3046875 C-122.63050419 57.42384833 -120.99110557 55.49694469 -119.36328125 53.515625 C-91.91662474 21.30549918 -41.80168536 0.25213889 0 0 Z " fill="#E7E7E7" transform="translate(171.42578125,-0.203125)"/>
<path d="M0 0 C0.495 1.485 0.495 1.485 1 3 C-19.80327869 12 -19.80327869 12 -25 12 C-25.10349447 18.8235947 -25.17231645 25.64697952 -25.21972656 32.47119141 C-25.23954089 34.78083859 -25.26660009 37.09043776 -25.30175781 39.39990234 C-25.80294955 73.23034496 -20.37910549 103.02360901 1 130 C1.69609375 130.89847656 2.3921875 131.79695312 3.109375 132.72265625 C11.39643953 143.16964717 21.15795303 155.30169013 34 160 C35.46563566 160.82042224 36.92318918 161.65535458 38.375 162.5 C42.21151685 164.67852465 45.71376647 165.99683896 50 167 C50 167.33 50 167.66 50 168 C33.28034788 168.56091736 16.72897331 161.15192388 3.42578125 151.5390625 C1.05661002 149.73213438 1.05661002 149.73213438 -2 150 C-6.6623734 144.42875887 -9.86415515 137.52967354 -13.125 131.0625 C-13.59329224 130.134375 -13.59329224 130.134375 -14.07104492 129.1875 C-19.17731164 118.81793257 -23.07297133 108.23238101 -26.25 97.125 C-26.600625 95.96097656 -26.95125 94.79695313 -27.3125 93.59765625 C-29.39281214 86.37257216 -30.49583242 79.56908328 -30.81542969 72.05419922 C-30.91470035 69.09354671 -30.91470035 69.09354671 -31.52319336 66.62573242 C-32.1937231 62.93318386 -32.04282196 59.29345345 -31.95703125 55.55859375 C-31.93465495 53.90691288 -31.91319826 52.25521935 -31.89257812 50.60351562 C-31.85541593 48.01372901 -31.81220572 45.4245915 -31.75317383 42.83520508 C-31.69870863 40.32623838 -31.66960695 37.81800349 -31.64453125 35.30859375 C-31.62074905 34.53559433 -31.59696686 33.76259491 -31.57246399 32.96617126 C-31.55522056 29.42777429 -31.68683598 27.41934392 -33.8347168 24.54321289 C-36.00878021 22.83424775 -36.00878021 22.83424775 -39 22 C-39 23.98 -39 25.96 -39 28 C-39.66 28 -40.32 28 -41 28 C-42.81863862 25.32553144 -42.99685079 23.91497146 -42.875 20.625 C-41.86527593 16.44185742 -40.86601285 14.22426446 -38 11 C-33.3094448 8.1838202 -28.45149647 6.86512425 -23.16308594 5.58447266 C-18.67048801 4.3705585 -14.3429006 2.61872171 -10.00390625 0.94726562 C-3.49389608 -1.45454244 -3.49389608 -1.45454244 0 0 Z " fill="#5414D2" transform="translate(157,16)"/>
<path d="M0 0 C11.24667445 11.24667445 11.24667445 11.24667445 11.34375 16.72265625 C11.37194824 17.89328613 11.40014648 19.06391602 11.42919922 20.27001953 C11.46424561 22.14729736 11.46424561 22.14729736 11.5 24.0625 C11.83003701 44.31408501 11.83003701 44.31408501 16.4140625 63.921875 C17.09851769 66.34940941 17.0965347 68.49009786 17 71 C16.484375 70.67773438 15.96875 70.35546875 15.4375 70.0234375 C12.22964673 68.67655039 9.47325627 68.71906736 6 68.625 C-0.95910339 68.30157876 -7.77177837 67.34223137 -14 64 C-15.32421875 61.86328125 -15.32421875 61.86328125 -16 60 C-12.44219804 60.60990891 -9.3171411 61.5783681 -6 63 C-6 62.34 -6 61.68 -6 61 C-8.97 60.01 -11.94 59.02 -15 58 C-14.25842004 46.13472065 -10.82317109 34.8548564 -7.6484375 23.453125 C-7.02201582 21.08328876 -6.4979003 18.71221621 -6 16.3125 C-4.76992419 10.59264747 -2.79286491 5.1560583 0 0 Z " fill="#5D16E9" transform="translate(112,44)"/>
<path d="M0 0 C0.66 0 1.32 0 2 0 C3.69832609 5.83799592 4.25287193 10.93107371 4 17 C4.66 17 5.32 17 6 17 C6 19.31 6 21.62 6 24 C6.38671875 23.50628906 6.7734375 23.01257813 7.171875 22.50390625 C7.69265625 21.86324219 8.2134375 21.22257812 8.75 20.5625 C9.26046875 19.92441406 9.7709375 19.28632812 10.296875 18.62890625 C12.2227228 16.78698301 13.44454001 16.53738464 16 16 C16.10133362 23.75948954 16.17143783 31.51880876 16.21972656 39.27880859 C16.23985475 41.91917294 16.26715987 44.55949265 16.30175781 47.19970703 C16.3502205 50.99262501 16.3729572 54.78495416 16.390625 58.578125 C16.41127014 59.76053772 16.43191528 60.94295044 16.45318604 62.16119385 C16.45348816 63.26203308 16.45379028 64.36287231 16.45410156 65.49707031 C16.46298401 66.46525696 16.47186646 67.4334436 16.48101807 68.43096924 C15.83618768 71.87489204 14.84351489 72.97155256 12 75 C8.535 75.495 8.535 75.495 5 76 C4.505 64.12 4.505 64.12 4 52 C3.938125 55.63 3.87625 59.26 3.8125 63 C3.47661605 73.56819545 1.76523356 82.14909825 -2 92 C-2.78008581 94.33025634 -3.55173498 96.66336459 -4.3125 99 C-4.87340749 100.66720329 -5.43523454 102.33409964 -6 104 C-6.66 103.67 -7.32 103.34 -8 103 C-10.97 107.455 -10.97 107.455 -14 112 C-14.96924691 108.12301235 -15.10202582 107.43139031 -13.9519043 103.94091797 C-13.69801437 103.15264618 -13.44412445 102.36437439 -13.18254089 101.55221558 C-12.89929459 100.70740631 -12.61604828 99.86259705 -12.32421875 98.9921875 C-12.03899857 98.11152618 -11.75377838 97.23086487 -11.45991516 96.32351685 C-10.54550115 93.50406457 -9.6175129 90.68934176 -8.6875 87.875 C-7.7698158 85.08160699 -6.85527523 82.28729171 -5.94721985 79.49075317 C-5.38222559 77.75236855 -4.81161553 76.01579488 -4.23429871 74.28146362 C-0.84656279 63.89769257 0.28970206 54.48352558 0.1953125 43.5546875 C0.19106766 41.67814987 0.19106766 41.67814987 0.18673706 39.76370239 C0.17750168 36.47248436 0.15960118 33.18147039 0.1373291 29.89031982 C0.11669861 26.51805083 0.10769895 23.1457517 0.09765625 19.7734375 C0.07570393 13.1822133 0.04230798 6.5911233 0 0 Z " fill="#5514D3" transform="translate(233,36)"/>
<path d="M0 0 C2.09127499 3.13691248 2.93665084 5.71123545 4 9.3125 C5.26529673 13.56804876 6.5749933 17.79495791 8 22 C6.53515625 20.73046875 5.0703125 19.4609375 3.60546875 18.19140625 C1.89287029 16.79128769 1.89287029 16.79128769 -1 16 C0.22526416 22.84786524 2.287708 28.11751121 5.75 34.125 C6.16765625 34.88425781 6.5853125 35.64351562 7.015625 36.42578125 C18.0595416 55.98832863 40.19153798 64.96778677 61 71 C67.02630464 72.05221192 72.89212863 72.11264517 79 72 C78.67 72.66 78.34 73.32 78 74 C54.88874369 78.01371958 31.53676512 71.65894765 9.34545898 65.81616211 C6.2391299 65.05833841 3.15993197 64.47954383 0 64 C1.55140139 68.06902645 3.21691669 71.62858106 6 75 C9.22404303 76.18802627 11.97013641 76.54544364 15.390625 76.75390625 C18 77 18 77 20 79 C13.4 78.34 6.8 77.68 0 77 C-0.96088383 74.11734851 -1.11670941 72.32337729 -1.09765625 69.33203125 C-1.09443359 68.43935547 -1.09121094 67.54667969 -1.08789062 66.62695312 C-1.07951172 65.69818359 -1.07113281 64.76941406 -1.0625 63.8125 C-1.05798828 62.87212891 -1.05347656 61.93175781 -1.04882812 60.96289062 C-1.03704626 58.64186288 -1.02059558 56.32096356 -1 54 C-0.44650879 54.25168945 0.10698242 54.50337891 0.67724609 54.76269531 C3.24212516 55.92743332 5.80855035 57.08872704 8.375 58.25 C9.24511719 58.64574219 10.11523438 59.04148438 11.01171875 59.44921875 C21.14555117 64.67909306 21.14555117 64.67909306 32 67 C31.19332886 66.68361572 31.19332886 66.68361572 30.37036133 66.36083984 C-0.3625498 54.2749004 -0.3625498 54.2749004 -2 51 C-2.03097226 47.71694052 -1.9324438 44.44580835 -1.83984375 41.1640625 C-1.9977253 38.04493925 -2.51948457 36.65689397 -4 34 C-4.19569268 30.28183899 -4.17990239 27.53970718 -3 24 C-3.00571344 21.43180773 -3.05235385 18.8785494 -3.125 16.3125 C-3.22911 10.21384562 -2.74611726 5.49223452 0 0 Z " fill="#5514D5" transform="translate(131,120)"/>
<path d="M0 0 C5.21442198 2.73526654 8.24792015 7.1131313 10.33984375 12.51953125 C12.62310151 21.09863584 10.96196554 29.17831318 7 37 C4.75887767 40.10732298 2.69570994 41.76809669 -1 43 C-6.02042893 43.37188362 -8.99733424 43.13722452 -13 40 C-19.29819827 33.33131948 -20.59020677 27.16698329 -20.34375 18.22265625 C-19.65759139 11.78991924 -17.38716864 7.01216864 -12.8125 2.4375 C-8.74868545 -0.66909913 -4.93886154 -1.28497814 0 0 Z " fill="#030303" transform="translate(109,213)"/>
<path d="M0 0 C5.36787898 1.88869816 8.45991584 4.91983169 11 10 C11.59057744 15.67862925 11.29370905 20.16922672 8 25 C4.06366868 28.96859633 0.8393193 30.84923612 -4.8125 31.3125 C-9.20360994 31.24804334 -11.61154946 29.84937886 -15 27 C-19.30051598 22.23456338 -20.36910928 18.56209076 -20.27734375 12.28125 C-19.68782613 7.43225997 -16.8548648 4.77344911 -13.375 1.625 C-8.79276143 -0.58126302 -4.99945212 -0.66767927 0 0 Z " fill="#5C16E8" transform="translate(349,176)"/>
<path d="M0 0 C5.36787898 1.88869816 8.45991584 4.91983169 11 10 C11.59057744 15.67862925 11.29370905 20.16922672 8 25 C4.06366868 28.96859633 0.8393193 30.84923612 -4.8125 31.3125 C-9.20360994 31.24804334 -11.61154946 29.84937886 -15 27 C-19.30051598 22.23456338 -20.36910928 18.56209076 -20.27734375 12.28125 C-19.68782613 7.43225997 -16.8548648 4.77344911 -13.375 1.625 C-8.79276143 -0.58126302 -4.99945212 -0.66767927 0 0 Z " fill="#1700AA" transform="translate(28,176)"/>
<path d="M0 0 C0.66 0 1.32 0 2 0 C3.83636466 3.67272933 3.87054969 7.99140272 4.40234375 12.03125 C4.73614473 15.10524294 4.73614473 15.10524294 7 17 C7.32050722 18.8013693 7.55532608 20.61822588 7.75 22.4375 C8.69183115 29.31363309 10.63412408 35.6421372 12.87988281 42.19897461 C14.55078468 47.16828696 15.5173689 51.77447563 16 57 C11.38 58.32 6.76 59.64 2 61 C6.91661923 60.29762582 10.46936669 59.58045348 15 58 C15.66 58 16.32 58 17 58 C17.33 59.32 17.66 60.64 18 62 C16.37884308 62.63490176 14.75277293 63.25725792 13.125 63.875 C12.22007812 64.22304687 11.31515625 64.57109375 10.3828125 64.9296875 C5.98401736 66.32145409 1.53294918 67.16613487 -3 68 C-3.13255267 53.23363215 -3.0058111 38.47389161 -2.68161011 23.71096802 C-2.64387323 21.94547215 -2.60946907 20.17990191 -2.57839966 18.41427612 C-2.53323491 15.9125842 -2.47536289 13.4114983 -2.4140625 10.91015625 C-2.40250626 10.15497711 -2.39095001 9.39979797 -2.37904358 8.62173462 C-2.27302718 4.89914814 -2.11649892 3.17474839 0 0 Z " fill="#5B16E4" transform="translate(253,44)"/>
<path d="M0 0 C2.64 0 5.28 0 8 0 C8.30292969 1.05316406 8.60585937 2.10632813 8.91796875 3.19140625 C11.43636976 11.8806498 14.10870388 20.47855206 17.08203125 29.0234375 C18 32 18 32 18 35 C18.66 35 19.32 35 20 35 C20.09651855 34.43039551 20.19303711 33.86079102 20.29248047 33.27392578 C21.6385303 25.9298428 23.79366083 18.95963493 26.125 11.875 C26.49753906 10.72773438 26.87007812 9.58046875 27.25390625 8.3984375 C28.16427988 5.59728787 29.07972749 2.79790983 30 0 C32.64 0 35.28 0 38 0 C38 14.85 38 29.7 38 45 C35.36 45 32.72 45 30 45 C30 33.12 30 21.24 30 9 C26.04 20.88 22.08 32.76 18 45 C17.01 45 16.02 45 15 45 C11.04 32.79 7.08 20.58 3 8 C3 20.21 3 32.42 3 45 C1.68 44.67 0.36 44.34 -1 44 C-0.67 29.48 -0.34 14.96 0 0 Z " fill="#E4E4E4" transform="translate(167,212)"/>
<path d="M0 0 C2.64 0 5.28 0 8 0 C12.76182778 14.97089793 17.39601017 29.97987885 22 45 C19.36 45 16.72 45 14 45 C13.89042969 44.39414062 13.78085938 43.78828125 13.66796875 43.1640625 C12.62647818 37.66025056 11.29140169 32.36715777 9.5859375 27.03125 C9 25 9 25 9 23 C4.71 23 0.42 23 -4 23 C-4.45375 24.711875 -4.9075 26.42375 -5.375 28.1875 C-6.36438245 31.92017016 -7.56733203 35.41833006 -9 39 C-9.37593066 40.9924325 -9.71979545 42.9918674 -10 45 C-11.32 44.67 -12.64 44.34 -14 44 C-13.55543457 42.99984863 -13.11086914 41.99969727 -12.65283203 40.96923828 C-11.04644554 37.21676558 -9.75821948 33.39023563 -8.5546875 29.4921875 C-8.33934357 28.80367706 -8.12399963 28.11516663 -7.90213013 27.40579224 C-7.45168751 25.96265259 -7.00304858 24.51894882 -6.55615234 23.07470703 C-5.87422872 20.87250924 -5.1855945 18.67249197 -4.49609375 16.47265625 C-4.05689352 15.06262395 -3.61807807 13.65247174 -3.1796875 12.2421875 C-2.97552216 11.58999237 -2.77135681 10.93779724 -2.56100464 10.26583862 C-1.51292478 6.86654835 -0.62242391 3.50311876 0 0 Z " fill="#F0F0F0" transform="translate(224,212)"/>
<path d="M0 0 C2.87298004 1.56359181 5.05783957 3.36030308 7 6 C7 6.66 7 7.32 7 8 C4.69 8 2.38 8 0 8 C-0.144375 7.195625 -0.28875 6.39125 -0.4375 5.5625 C-0.74135249 3.07896294 -0.74135249 3.07896294 -2 2 C-7.87646031 1.53668563 -7.87646031 1.53668563 -13 4 C-13.77692929 9.43721689 -13.77692929 9.43721689 -11.40625 14.07421875 C-7.52175306 17.1830775 -3.01906198 18.57022112 1.58984375 20.33984375 C5.86343755 22.42034474 9.12514268 24.68182969 10.84765625 29.24609375 C11.25012736 33.35129904 11.21206619 35.54193702 9.4375 39.375 C5.08113042 44.06647494 1.41663491 45.19888901 -4.875 45.5 C-10.71742218 45.33328076 -14.77004258 44.10793942 -19 40 C-20.66206693 37.71465797 -21.78779749 35.57593032 -23 33 C-20.36 33 -17.72 33 -15 33 C-14.87625 34.6396875 -14.87625 34.6396875 -14.75 36.3125 C-14.31102388 39.91832218 -14.31102388 39.91832218 -12.4375 41.9375 C-8.72271629 43.55676469 -6.0510756 43.38581672 -2 43 C0.17476401 41.45661909 0.81832637 40.36334727 2 38 C2.54131564 33.3923768 2.54131564 33.3923768 0.71264648 29.3918457 C-1.03035455 27.97533125 -2.60607319 27.08275048 -4.65234375 26.16796875 C-5.34650391 25.84376953 -6.04066406 25.51957031 -6.75585938 25.18554688 C-8.20264632 24.52367747 -9.65317512 23.86992319 -11.10742188 23.22460938 C-15.89663699 20.96537815 -18.52762651 18.89310471 -21 14 C-21 8.70383185 -19.73049765 5.73049765 -16 2 C-11.10297553 -1.0525505 -5.56019322 -0.85541434 0 0 Z " fill="#F1F1F1" transform="translate(152,212)"/>
<path d="M0 0 C5.21103165 3.00677596 8.11521768 7.78423962 11.0625 12.875 C12.94328877 20.77431282 11.89524753 27.56959231 7.6875 34.5 C3.75540861 39.28227331 -0.74861825 42.97961019 -6.9609375 43.88671875 C-14.90854287 44.20244554 -18.92685087 42.33449695 -25 37.25 C-29.97228898 31.3370077 -32.08998692 26.12517957 -31.75390625 18.30859375 C-30.67169889 11.42269026 -27.69111375 6.20229294 -22.1875 1.9375 C-15.69849999 -2.51895331 -7.26476788 -3.18359519 0 0 Z M-22.6328125 7.4453125 C-25.98712718 13.80209067 -26.30903178 20.46465598 -25.3125 27.5 C-23.49076771 32.87159007 -20.89212545 37.98895383 -16.3125 41.5 C-11.83823668 42.99142111 -7.99335977 43.24270548 -3.625 41.3125 C1.82853548 37.03810732 4.25366877 32.16370487 5.6875 25.5 C6.57315376 18.0946541 5.82148777 11.81105825 1.6875 5.5 C-0.92277599 2.22701145 -3.41209586 -0.00555857 -7.51953125 -1.07421875 C-14.68729264 -1.62370642 -18.74626587 1.71898048 -22.6328125 7.4453125 Z " fill="#E4E4E4" transform="translate(114.3125,213.5)"/>
<path d="M0 0 C1.32 1.65 2.64 3.3 4 5 C3.67 5.66 3.34 6.32 3 7 C3.04753298 9.27726179 3.1945244 11.53665834 3.35546875 13.80859375 C3 16 3 16 1.1015625 17.4140625 C-1.77334893 19.58360533 -2.01184107 21.47368675 -2.8125 24.9375 C-3.19341797 26.49791016 -3.19341797 26.49791016 -3.58203125 28.08984375 C-3.9867308 30.90761167 -4.10527604 32.40793131 -3 35 C-1.57186444 36.56749722 -1.57186444 36.56749722 0.125 37.9375 C2.95948795 40.67590361 2.95948795 40.67590361 3.3125 43.5 C1.66052287 46.64662311 -0.51510324 48.13623623 -3.27734375 50.30859375 C-6.13855685 53.11790276 -6.88604313 56.19944125 -8 60 C-10.31 59.34 -12.62 58.68 -15 58 C-14.43145658 46.1742969 -10.80675635 34.79590452 -7.6484375 23.453125 C-7.02201582 21.08328876 -6.4979003 18.71221621 -6 16.3125 C-4.76992419 10.59264747 -2.79286491 5.1560583 0 0 Z " fill="#5414D1" transform="translate(112,44)"/>
<path d="M0 0 C1.8125 0.0625 1.8125 0.0625 4 1 C6.25255076 3.96049529 7.82267893 6.4680368 9 10 C10.71519747 11.02651373 10.71519747 11.02651373 13 12 C14.051875 12.70125 15.10375 13.4025 16.1875 14.125 C20.4546921 16.53610002 24.20148985 16.89820342 29 16 C36.94655316 13.22080127 42.39609539 7.02507489 48 1 C49.32 1.66 50.64 2.32 52 3 C50.65406289 8.98194272 47.5050372 12.99735269 43 17 C35.12440359 21.91166228 27.22324646 24.50254554 17.953125 22.57421875 C9.66313007 19.8716804 3.23834964 14.20924729 -1.3203125 6.89453125 C-2.16861996 4.5299961 -1.8662119 3.32483308 -1 1 C-0.67 0.67 -0.34 0.34 0 0 Z " fill="#5A16E1" transform="translate(160,11)"/>
<path d="M0 0 C0.33 0 0.66 0 1 0 C1.10133362 7.75948954 1.17143783 15.51880876 1.21972656 23.27880859 C1.23985475 25.91917294 1.26715987 28.55949265 1.30175781 31.19970703 C1.3502205 34.99262501 1.3729572 38.78495416 1.390625 42.578125 C1.41127014 43.76053772 1.43191528 44.94295044 1.45318604 46.16119385 C1.45348816 47.26203308 1.45379028 48.36287231 1.45410156 49.49707031 C1.46298401 50.46525696 1.47186646 51.4334436 1.48101807 52.43096924 C0.83618768 55.87489204 -0.15648511 56.97155256 -3 59 C-6.465 59.495 -6.465 59.495 -10 60 C-9.67 51.42 -9.34 42.84 -9 34 C-8.34 34 -7.68 34 -7 34 C-3.85061471 18.68034007 -3.85061471 18.68034007 -1.39453125 3.23828125 C-1 1 -1 1 0 0 Z " fill="#5B16E3" transform="translate(248,52)"/>
<path d="M0 0 C2.64 0 5.28 0 8 0 C8.21116455 0.56017822 8.4223291 1.12035645 8.63989258 1.69750977 C11.58895591 9.30821765 15.10313584 16.60983952 18.6875 23.9375 C19.86038898 26.34133549 21.03031556 28.74656238 22.19921875 31.15234375 C22.71315186 32.20413818 23.22708496 33.25593262 23.7565918 34.33959961 C25 37 25 37 26 40 C26 26.8 26 13.6 26 0 C26.99 0.33 27.98 0.66 29 1 C29 15.52 29 30.04 29 45 C26.36 45 23.72 45 21 45 C20.69304199 44.18039795 20.69304199 44.18039795 20.37988281 43.34423828 C17.27421607 35.30517573 13.52708844 27.6140877 9.75 19.875 C6.40875 13.006875 6.40875 13.006875 3 6 C3 18.87 3 31.74 3 45 C1.68 44.67 0.36 44.34 -1 44 C-0.505 43.505 -0.505 43.505 0 43 C0.09268999 41.64905018 0.11747326 40.29332909 0.11352539 38.93920898 C0.11344986 38.07839218 0.11337433 37.21757538 0.11329651 36.33067322 C0.10555458 34.92755638 0.10555458 34.92755638 0.09765625 33.49609375 C0.0962413 32.54307877 0.09482635 31.59006378 0.09336853 30.60816956 C0.08775152 27.55124835 0.07519616 24.49439923 0.0625 21.4375 C0.05748719 19.37044376 0.05292391 17.30338638 0.04882812 15.23632812 C0.03777656 10.15752412 0.02050055 5.0787743 0 0 Z " fill="#F5F5F5" transform="translate(252,212)"/>
<path d="M0 0 C1.32 0.66 2.64 1.32 4 2 C4.01981934 2.75917725 4.03963867 3.51835449 4.06005859 4.30053711 C4.08011436 29.99384116 4.08011436 29.99384116 9.4140625 54.921875 C10.09851769 57.34940941 10.0965347 59.49009786 10 62 C9.24976563 61.52433594 9.24976563 61.52433594 8.484375 61.0390625 C5.12758852 59.6351235 1.83713706 59.53774346 -1.75 59.375 C-2.44738281 59.33632812 -3.14476563 59.29765625 -3.86328125 59.2578125 C-5.57510818 59.16401376 -7.28751682 59.08093826 -9 59 C-5.35157547 56.6650083 -2.23895694 56.92085961 2 57 C1.93941406 56.01942627 1.87882812 55.03885254 1.81640625 54.02856445 C0.71302866 36.01269845 -0.3815314 18.05915289 0 0 Z " fill="#5414D1" transform="translate(119,53)"/>
<path d="M0 0 C2.82778537 0.30570653 4.53372528 0.5688027 6.65185547 2.52758789 C8.57732994 6.05878673 8.35208929 9.39493443 8.2578125 13.30859375 C8.25119598 14.11232925 8.24457947 14.91606476 8.23776245 15.74415588 C8.21439523 18.30899657 8.17071357 20.87296851 8.125 23.4375 C8.08985052 25.99835649 8.05903319 28.55916042 8.03366089 31.12013245 C8.01678878 32.71179734 7.99373445 34.30341214 7.96365356 35.8948822 C7.91193141 39.75063835 8.11203057 43.24849797 9 47 C9.14713129 49.2069693 9.27026607 51.41561277 9.375 53.625 C9.73069319 59.27459349 10.67679256 64.23962557 12.4765625 69.59765625 C13.08234125 72.37790946 12.72888547 74.27396835 12 77 C11.67 77 11.34 77 11 77 C10.17083893 73.92091152 9.36498449 70.83613871 8.5625 67.75 C8.33240234 66.89664063 8.10230469 66.04328125 7.86523438 65.1640625 C5.53136578 56.09918157 4.98688061 47.21561536 4.89453125 37.87890625 C4.87970703 36.67685547 4.86488281 35.47480469 4.84960938 34.23632812 C4.82459481 31.75988648 4.81981807 29.28316808 4.83398438 26.80664062 C4.96784871 20.63129435 4.96784871 20.63129435 2.64599609 15.14794922 C0.85022909 13.65415811 0.85022909 13.65415811 -2 12 C-2.33 11.01 -2.66 10.02 -3 9 C-1.68 8.67 -0.36 8.34 1 8 C0.67 5.36 0.34 2.72 0 0 Z " fill="#05010E" transform="translate(118,38)"/>
<path d="M0 0 C2.64 0 5.28 0 8 0 C8 14.85 8 29.7 8 45 C5.36 45 2.72 45 0 45 C0.33 44.34 0.66 43.68 1 43 C1.15720097 40.0851463 1.25855654 37.19060364 1.31640625 34.2734375 C1.33718735 33.41062164 1.35796844 32.54780579 1.37937927 31.65884399 C1.44486034 28.89764507 1.50375298 26.13634962 1.5625 23.375 C1.6056866 21.50519828 1.64930093 19.63540638 1.69335938 17.765625 C1.80054024 13.17718272 1.90181175 8.58864317 2 4 C1.34 4 0.68 4 0 4 C0 2.68 0 1.36 0 0 Z " fill="#FEFEFE" transform="translate(197,212)"/>
<path d="M0 0 C-0.72316406 0.76183594 -0.72316406 0.76183594 -1.4609375 1.5390625 C-2.09257813 2.22742188 -2.72421875 2.91578125 -3.375 3.625 C-4.31472656 4.63433594 -4.31472656 4.63433594 -5.2734375 5.6640625 C-9.91216624 11.93998962 -9.87719191 19.51755303 -9 27 C-7.17240912 32.26486758 -4.3922668 36.61293355 -1 41 C-6.72974868 40.50887868 -9.14673732 37.19645947 -12.6875 33 C-16.43677226 27.28682322 -16.84747086 21.65487647 -16 15 C-13.92915381 8.27697376 -10.5269032 3.94840679 -4.8671875 -0.13671875 C-3 -1 -3 -1 0 0 Z " fill="#EEEEEE" transform="translate(99,214)"/>
<path d="M0 0 C1.27041943 7.41588211 0.44716624 13.18275835 -1.375 20.4375 C-1.60960937 21.42943359 -1.84421875 22.42136719 -2.0859375 23.44335938 C-3.80603907 30.61207815 -3.80603907 30.61207815 -5 33 C-5.66 33 -6.32 33 -7 33 C-7 38.61 -7 44.22 -7 50 C-7.33 50 -7.66 50 -8 50 C-8.26690424 44.11097304 -8.49994197 38.22193462 -8.7019043 32.33032227 C-8.77531994 30.32703151 -8.8579244 28.3240553 -8.94995117 26.3215332 C-9.08076959 23.43995383 -9.17831477 20.55885268 -9.26953125 17.67578125 C-9.31721146 16.78288895 -9.36489166 15.88999664 -9.41401672 14.970047 C-9.52404987 10.43625213 -9.52936498 8.65777397 -6.5925293 5.00854492 C-5.73699463 4.3457251 -4.88145996 3.68290527 -4 3 C-3.4225 2.401875 -2.845 1.80375 -2.25 1.1875 C-1 0 -1 0 0 0 Z " fill="#190640" transform="translate(246,53)"/>
<path d="M0 0 C3 0.5625 3 0.5625 5.375 2.0625 C7.66553108 5.58639397 7.67045833 8.47270416 7 12.5625 C5.9375 15.0625 5.9375 15.0625 4 16.5625 C0.08204004 17.13238508 -2.07240983 17.15710908 -5.4375 15 C-7.61348954 11.60545632 -7.55627159 9.5259351 -7 5.5625 C-5.01529365 1.9747616 -4.06692899 0.76254919 0 0 Z " fill="#DADADA" transform="translate(235,278.4375)"/>
<path d="M0 0 C1.25707764 0.48895752 1.25707764 0.48895752 2.53955078 0.98779297 C6.33109044 2.09684641 9.42259754 2.22791242 13.3671875 2.1953125 C14.04677521 2.1924826 14.72636292 2.18965271 15.42654419 2.18673706 C17.57621608 2.17562964 19.72545614 2.15054391 21.875 2.125 C23.34113977 2.11495795 24.80728614 2.10583425 26.2734375 2.09765625 C29.84909631 2.07572159 33.42450594 2.04125814 37 2 C35.63016497 5.16115776 35.0109362 5.9927092 32 8 C22.59360657 10.09030965 11.64685867 10.56815175 3 6 C0 2.90625 0 2.90625 0 0 Z " fill="#4E13C2" transform="translate(166,12)"/>
<path d="M0 0 C0.33 0 0.66 0 1 0 C1 5.61 1 11.22 1 17 C9.91 14.525 9.91 14.525 19 12 C19 12.99 19 13.98 19 15 C14.38 16.32 9.76 17.64 5 19 C9.91661923 18.29762582 13.46936669 17.58045348 18 16 C18.66 16 19.32 16 20 16 C20.33 17.32 20.66 18.64 21 20 C19.37884308 20.63490176 17.75277293 21.25725792 16.125 21.875 C15.22007812 22.22304687 14.31515625 22.57109375 13.3828125 22.9296875 C9.01918741 24.31032639 4.48795264 25.10240947 0 26 C0 17.42 0 8.84 0 0 Z " fill="#5715DA" transform="translate(250,86)"/>
<path d="M0 0 C2.35200168 3.01994173 4.33616918 6.16178845 6.3125 9.4375 C10.0158688 15.28820029 13.48241117 18.38494301 19.3125 22.125 C22 24 22 24 23 27 C15.38457225 24.67664916 8.03237731 21.75688014 1 18 C-0.59412284 14.81175432 -0.10174735 11.37103338 -0.0625 7.875 C-0.05798828 7.12089844 -0.05347656 6.36679688 -0.04882812 5.58984375 C-0.03703499 3.72652873 -0.01909942 1.86325445 0 0 Z " fill="#5A16E2" transform="translate(129,155)"/>
<path d="M0 0 C0.66 0 1.32 0 2 0 C3.17519697 8.39426408 -0.70058117 15.06285141 -5 22 C-7.46156667 24.95211227 -10.08315271 27.50559266 -13 30 C-13.66 30.66 -14.32 31.32 -15 32 C-15.44160213 26.80149067 -14.30312473 24.2386559 -11.4375 19.9375 C-10.70381508 18.80937682 -9.97343595 17.67909794 -9.24609375 16.546875 C-8.87339355 15.96873047 -8.50069336 15.39058594 -8.11669922 14.79492188 C-6.27397039 11.83301931 -4.63300062 8.7686413 -3 5.6875 C-2.4225 4.59824219 -1.845 3.50898438 -1.25 2.38671875 C-0.8375 1.59910156 -0.425 0.81148437 0 0 Z " fill="#5615D9" transform="translate(234,151)"/>
<path d="M0 0 C0.66 0.33 1.32 0.66 2 1 C0.65406289 6.98194272 -2.4949628 10.99735269 -7 15 C-14.87559641 19.91166228 -22.77675354 22.50254554 -32.046875 20.57421875 C-39.14806196 18.2592318 -45.81734399 13.58674703 -49.5625 7.0625 C-50.036875 6.051875 -50.51125 5.04125 -51 4 C-47.71490353 5.09503216 -47.29305623 5.66230012 -45.3125 8.3125 C-41.1821703 13.34117641 -35.22875239 16.49225958 -28.72265625 17.2734375 C-20.15229331 17.60064666 -12.33375735 15.75394076 -5.72265625 10.02734375 C-2.79658607 6.82601952 -0.79942493 4.32459995 0 0 Z " fill="#5013C7" transform="translate(210,13)"/>
<path d="M0 0 C1.62900273 0.23760749 3.25753703 0.47895044 4.88330078 0.73779297 C8.72446233 1.21361852 12.57307182 1.10298152 16.4375 1.0625 C17.67790039 1.05573242 17.67790039 1.05573242 18.94335938 1.04882812 C20.96227146 1.03715811 22.98114574 1.01922718 25 1 C25.66 2.32 26.32 3.64 27 5 C21.30523971 8.31331508 16.63978549 10.36497332 10 9 C5.68970527 7.03258324 2.26268949 4.41281324 -1 1 C-0.67 0.67 -0.34 0.34 0 0 Z " fill="#0A0219" transform="translate(170,19)"/>
<path d="M0 0 C0.66 0 1.32 0 2 0 C3.57969677 2.53662846 5.05223434 5.07676143 6.5 7.6875 C13.33823636 19.65035737 21.54875102 29.96138526 31 40 C31.57105469 40.62390625 32.14210937 41.2478125 32.73046875 41.890625 C37.58787134 47.01339638 43.22131353 50.97686385 49 55 C48.505 55.99 48.505 55.99 48 57 C26.43212781 43.08420223 10.61661025 23.14968596 0 0 Z " fill="#0C031F" transform="translate(140,121)"/>
<path d="M0 0 C0.66 0 1.32 0 2 0 C3.27063289 10.55079098 3.17876942 21.11303215 3.04150391 31.72216797 C3.01279701 33.98933757 2.99216463 36.25661852 2.97802734 38.52392578 C2.94961422 42.07941834 2.88555463 45.63267156 2.8125 49.1875 C2.80686035 50.30398926 2.8012207 51.42047852 2.79541016 52.57080078 C2.57869506 60.31866477 2.57869506 60.31866477 -0.3125 63.72265625 C-3.70191322 65.33361282 -6.29341658 65.29071242 -10 65 C-10.33 62.69 -10.66 60.38 -11 58 C-10.67 58.99 -10.34 59.98 -10 61 C-8.51800098 60.55090939 -7.03944764 60.09043436 -5.5625 59.625 C-4.73878906 59.36976562 -3.91507813 59.11453125 -3.06640625 58.8515625 C-0.82201984 58.19117773 -0.82201984 58.19117773 0 56 C0.0908238 54.21268076 0.11753799 52.42194511 0.11352539 50.63232422 C0.11344986 49.51131317 0.11337433 48.39030212 0.11329651 47.23532104 C0.10813522 46.02071198 0.10297394 44.80610291 0.09765625 43.5546875 C0.0962413 42.31453888 0.09482635 41.07439026 0.09336853 39.79666138 C0.08871096 36.49881867 0.07972439 33.20102454 0.06866455 29.90319824 C0.05843731 26.53833613 0.05386809 23.17346692 0.04882812 19.80859375 C0.03778269 13.20571007 0.02103247 6.60285901 0 0 Z " fill="#100429" transform="translate(248,51)"/>
<path d="M0 0 C2.59947787 2.59947787 3.0684435 4.92738453 4.125 8.4375 C4.47820312 9.59121094 4.83140625 10.74492187 5.1953125 11.93359375 C6 15 6 15 6 18 C2.04 18 -1.92 18 -6 18 C-5.19140353 15.186323 -4.37832997 12.37407931 -3.5625 9.5625 C-3.33240234 8.76005859 -3.10230469 7.95761719 -2.86523438 7.13085938 C-1.11328125 1.11328125 -1.11328125 1.11328125 0 0 Z " fill="#0A0A0A" transform="translate(226,216)"/>
<path d="M0 0 C2.97885635 2.36954483 5.53919883 4.40726821 7.8828125 7.421875 C10.74992148 10.91318852 14.15914455 13.33882492 17.7578125 16.03515625 C19.9429969 17.95004781 20.94165655 19.33035837 22 22 C16.04414499 21.70220725 12.28773255 18.88213623 8 15 C7.34 14.01 6.68 13.02 6 12 C5.01 11.67 4.02 11.34 3 11 C0.68059158 7.22022332 -0.39168975 4.43915044 0 0 Z " fill="#5B16E3" transform="translate(143,141)"/>
<path d="M0 0 C1.859375 0.16796875 1.859375 0.16796875 4 1 C5.265625 3.36328125 5.265625 3.36328125 6.25 6.3125 C6.58515625 7.27800781 6.9203125 8.24351562 7.265625 9.23828125 C8 12 8 12 8 16 C7.01 15.67 6.02 15.34 5 15 C5 14.34 5 13.68 5 13 C2.69 13 0.38 13 -2 13 C-2.33 13.99 -2.66 14.98 -3 16 C-3.66 16 -4.32 16 -5 16 C-4.49228528 10.03435204 -2.61407872 5.36190101 0 0 Z " fill="#C5C5C5" transform="translate(127,279)"/>
<path d="M0 0 C2.09127499 3.13691248 2.93665084 5.71123545 4 9.3125 C5.26529673 13.56804876 6.5749933 17.79495791 8 22 C6.53515625 20.73046875 5.0703125 19.4609375 3.60546875 18.19140625 C1.89287029 16.79128769 1.89287029 16.79128769 -1 16 C-1 17.98 -1 19.96 -1 22 C-1.33 22 -1.66 22 -2 22 C-3.68448476 13.57757619 -3.34035724 7.7941669 0 0 Z " fill="#4E13C4" transform="translate(131,120)"/>
<path d="M0 0 C1.06323533 3.18970599 0.94985875 4.23098304 0.29296875 7.421875 C0.11830078 8.28296875 -0.05636719 9.1440625 -0.23632812 10.03125 C-0.42646484 10.9284375 -0.61660156 11.825625 -0.8125 12.75 C-0.99103516 13.63171875 -1.16957031 14.5134375 -1.35351562 15.421875 C-2.36994943 20.35359713 -3.54466963 25.17962972 -5 30 C-5.33 30 -5.66 30 -6 30 C-6.17550193 26.31310953 -6.2812482 22.62730299 -6.375 18.9375 C-6.42527344 17.89916016 -6.47554687 16.86082031 -6.52734375 15.79101562 C-6.62956468 10.42441678 -6.56296922 6.93804742 -2.9765625 2.75390625 C-2.01076496 1.80821192 -1.02712045 0.87870714 0 0 Z " fill="#5A16E1" transform="translate(245,53)"/>
<path d="M0 0 C0.66 0 1.32 0 2 0 C-0.10027154 7.46763214 -6.43501882 13.28935846 -13 17 C-20.1732803 20.43015498 -28.90076742 20.28012774 -36.40234375 17.9375 C-43.06641009 14.84496984 -47.71318056 10.94720725 -52 5 C-51.01 5 -50.02 5 -49 5 C-48.484375 5.70125 -47.96875 6.4025 -47.4375 7.125 C-42.79484155 12.60095613 -36.18383455 16.37383385 -29.02734375 17.23828125 C-20.98414156 17.52392768 -13.39522563 15.24554424 -7.0625 10.1875 C-3.866757 7.18380886 -1.95274437 3.90548874 0 0 Z " fill="#0C031E" transform="translate(211,16)"/>
<path d="M0 0 C0.99 0 1.98 0 3 0 C4.82421875 2.40625 4.82421875 2.40625 6.6875 5.5 C7.31011719 6.5209375 7.93273437 7.541875 8.57421875 8.59375 C9.04472656 9.3878125 9.51523437 10.181875 10 11 C10.33 7.37 10.66 3.74 11 0 C11.66 0 12.32 0 13 0 C13 5.28 13 10.56 13 16 C9 15 9 15 7.296875 12.71484375 C6.53117187 11.34005859 6.53117187 11.34005859 5.75 9.9375 C5.22921875 9.01839844 4.7084375 8.09929687 4.171875 7.15234375 C3.78515625 6.44207031 3.3984375 5.73179687 3 5 C2.67 8.63 2.34 12.26 2 16 C1.34 16 0.68 16 0 16 C0 10.72 0 5.44 0 0 Z " fill="#E2E2E2" transform="translate(259,279)"/>
<path d="M0 0 C2.86724686 0.57344937 3.8614515 0.8614515 6 3 C6.66 2.01 7.32 1.02 8 0 C8.66 0 9.32 0 10 0 C9.67 0.99 9.34 1.98 9 3 C8.77202438 5.73289293 8.58331813 8.45042204 8.4375 11.1875 C8.39431641 11.93708984 8.35113281 12.68667969 8.30664062 13.45898438 C8.20077315 15.30578375 8.0999024 17.15286834 8 19 C7.67 19 7.34 19 7 19 C7 15.04 7 11.08 7 7 C6.34 7 5.68 7 5 7 C4.67 9.31 4.34 11.62 4 14 C3.34 12.68 2.68 11.36 2 10 C-2.09949571 14.30972626 -3.63118644 16.85310727 -4 23 C-4.33 23 -4.66 23 -5 23 C-5.34855655 15.37048445 -5.0017506 9.07555499 -2 2 C-0.84058962 5.47823115 -1.29179116 7.45895578 -2 11 C1.2542015 8.16569547 2.5206753 6.31392226 3 2 C2.01 2 1.02 2 0 2 C0 1.34 0 0.68 0 0 Z " fill="#080215" transform="translate(243,44)"/>
<path d="M0 0 C0.99 0 1.98 0 3 0 C3 2.31 3 4.62 3 7 C5.64 7 8.28 7 11 7 C11 4.69 11 2.38 11 0 C11.66 0 12.32 0 13 0 C13 5.28 13 10.56 13 16 C12.34 16 11.68 16 11 16 C11 13.69 11 11.38 11 9 C8.36 9 5.72 9 3 9 C3 11.31 3 13.62 3 16 C2.01 16 1.02 16 0 16 C0 10.72 0 5.44 0 0 Z " fill="#C2C2C2" transform="translate(179,279)"/>
<path d="M0 0 C0.33 0.99 0.66 1.98 1 3 C1.66 3.33 2.32 3.66 3 4 C2.3503125 5.423125 2.3503125 5.423125 1.6875 6.875 C-0.29179929 11.4650893 -1.61927131 16.20032407 -3 21 C0.63 21.33 4.26 21.66 8 22 C8 22.33 8 22.66 8 23 C4.04 23 0.08 23 -4 23 C-4.45375 24.711875 -4.9075 26.42375 -5.375 28.1875 C-6.36438245 31.92017016 -7.56733203 35.41833006 -9 39 C-9.37593066 40.9924325 -9.71979545 42.9918674 -10 45 C-11.32 44.67 -12.64 44.34 -14 44 C-13.55543457 42.99984863 -13.11086914 41.99969727 -12.65283203 40.96923828 C-11.04644554 37.21676558 -9.75821948 33.39023563 -8.5546875 29.4921875 C-8.33934357 28.80367706 -8.12399963 28.11516663 -7.90213013 27.40579224 C-7.45168751 25.96265259 -7.00304858 24.51894882 -6.55615234 23.07470703 C-5.87422872 20.87250924 -5.1855945 18.67249197 -4.49609375 16.47265625 C-4.05689352 15.06262395 -3.61807807 13.65247174 -3.1796875 12.2421875 C-2.97552216 11.58999237 -2.77135681 10.93779724 -2.56100464 10.26583862 C-1.51292478 6.86654835 -0.62242391 3.50311876 0 0 Z " fill="#B1B1B1" transform="translate(224,212)"/>
<path d="M0 0 C3.29714793 0.32971479 4.6226839 0.6226839 7 3 C7.34490322 7.05261287 7.30163882 8.54754176 5 12 C1.9375 12.25 1.9375 12.25 -1 12 C-2.58894072 10.41105928 -2.16998411 8.75198576 -2.1875 6.5625 C-2.20167969 5.75941406 -2.21585938 4.95632813 -2.23046875 4.12890625 C-2 2 -2 2 0 0 Z " fill="#0C0C0C" transform="translate(233,281)"/>
<path d="M0 0 C1.42950211 2.78543271 2.69507778 5.59590943 3.8828125 8.4921875 C12.1511129 28.61579838 12.1511129 28.61579838 25 46 C24.67 46.66 24.34 47.32 24 48 C15.9269846 40.28778975 11.08343349 30.79177869 6 21 C5.62979736 20.29617187 5.25959473 19.59234375 4.87817383 18.8671875 C2.89345254 15.01913739 1.30162031 11.331251 0.1875 7.125 C-0.19341797 5.73667969 -0.19341797 5.73667969 -0.58203125 4.3203125 C-1 2 -1 2 0 0 Z " fill="#0D0321" transform="translate(134,123)"/>
<path d="M0 0 C1.875 1.375 1.875 1.375 3 3 C3 3.66 3 4.32 3 5 C0.03 4.01 -2.94 3.02 -6 2 C-5.67 3.32 -5.34 4.64 -5 6 C-3.15272433 7.13070444 -3.15272433 7.13070444 -0.9375 7.75 C-0.20402344 7.99234375 0.52945313 8.2346875 1.28515625 8.484375 C1.85105469 8.65453125 2.41695312 8.8246875 3 9 C3.125 11.375 3.125 11.375 3 14 C1 16 1 16 -0.875 16.265625 C-1.57625 16.26046875 -2.2775 16.2553125 -3 16.25 C-4.051875 16.25773437 -4.051875 16.25773437 -5.125 16.265625 C-7 16 -7 16 -9 14 C-9 13.01 -9 12.02 -9 11 C-8.34 11 -7.68 11 -7 11 C-6.67 11.66 -6.34 12.32 -6 13 C-4.02 13 -2.04 13 0 13 C0 12.34 0 11.68 0 11 C-4.455 9.02 -4.455 9.02 -9 7 C-9.1875 4.625 -9.1875 4.625 -9 2 C-5.53076119 -0.31282587 -4.07794425 -0.42478586 0 0 Z " fill="#E6E6E6" transform="translate(160,279)"/>
<path d="M0 0 C0.99 0.495 0.99 0.495 2 1 C3.53537767 6.32866369 4.13320268 11.34287476 4.4375 16.875 C4.75680944 22.44785352 5.70164958 27.3136265 7.4765625 32.59765625 C8.08234125 35.37790946 7.72888547 37.27396835 7 40 C6.67 40 6.34 40 6 40 C2.12268403 26.55100732 0.16381757 13.9989557 0 0 Z " fill="#0B021C" transform="translate(123,75)"/>
<path d="M0 0 C3 3 3 3 3.36076355 4.87931824 C3.35410172 5.58325211 3.34743988 6.28718597 3.34057617 7.01245117 C3.34034958 7.81305466 3.34012299 8.61365814 3.33988953 9.43852234 C3.32440567 10.29798965 3.30892181 11.15745697 3.29296875 12.04296875 C3.28872391 12.9265657 3.28447906 13.81016266 3.28010559 14.72053528 C3.26331043 17.54316661 3.22565697 20.36508441 3.1875 23.1875 C3.17245423 25.10090115 3.15876564 27.01431349 3.14648438 28.92773438 C3.11340419 33.61876459 3.0616163 38.30926131 3 43 C1.68 42.67 0.36 42.34 -1 42 C-0.67 28.14 -0.34 14.28 0 0 Z " fill="#BBBBBB" transform="translate(167,214)"/>
<path d="M0 0 C0.33 0 0.66 0 1 0 C1 7.92 1 15.84 1 24 C2.98 24 4.96 24 7 24 C5.9375 25.4375 5.9375 25.4375 4 27 C1.69 27.33 -0.62 27.66 -3 28 C-2.67 19.42 -2.34 10.84 -2 2 C-1.34 2 -0.68 2 0 2 C0 1.34 0 0.68 0 0 Z " fill="#5314CF" transform="translate(241,84)"/>
<path d="M0 0 C0.33 0 0.66 0 1 0 C1 5.61 1 11.22 1 17 C9.91 14.525 9.91 14.525 19 12 C19 12.99 19 13.98 19 15 C17.55367188 15.39832031 17.55367188 15.39832031 16.078125 15.8046875 C14.81484375 16.15789062 13.5515625 16.51109375 12.25 16.875 C10.99703125 17.22304687 9.7440625 17.57109375 8.453125 17.9296875 C5.75046359 18.76739025 3.4530643 19.62479728 1 21 C1.66 22.65 2.32 24.3 3 26 C2.01 26 1.02 26 0 26 C0 17.42 0 8.84 0 0 Z " fill="#4911B7" transform="translate(250,86)"/>
<path d="M0 0 C0.78375 0.04125 1.5675 0.0825 2.375 0.125 C2.705 1.115 3.035 2.105 3.375 3.125 C4.035 3.455 4.695 3.785 5.375 4.125 C4.385 5.115 3.395 6.105 2.375 7.125 C2.106875 6.485625 1.83875 5.84625 1.5625 5.1875 C0.48832248 2.79368314 0.48832248 2.79368314 -2.625 2.125 C-2.625 2.785 -2.625 3.445 -2.625 4.125 C-1.635 4.125 -0.645 4.125 0.375 4.125 C0.75 6.3125 0.75 6.3125 0.375 9.125 C-1.46461648 11.11522836 -3.41686148 12.51489899 -5.625 14.125 C-5.5528125 13.51011719 -5.480625 12.89523438 -5.40625 12.26171875 C-5.26703125 11.04935547 -5.26703125 11.04935547 -5.125 9.8125 C-5.0321875 9.01199219 -4.939375 8.21148437 -4.84375 7.38671875 C-4.57686537 5.00603445 -4.57686537 5.00603445 -4.625 2.125 C-2.625 0.125 -2.625 0.125 0 0 Z " fill="#5214CC" transform="translate(245.625,41.875)"/>
<path d="M0 0 C2.64 0 5.28 0 8 0 C8.12375 1.6396875 8.12375 1.6396875 8.25 3.3125 C8.69745965 6.90427234 8.69745965 6.90427234 10.5 8.9375 C13.76133814 10.32356871 16.47492283 10.13700666 19.9765625 9.91015625 C22 10 22 10 24 12 C17.06393773 12.52020467 11.42042921 12.77981117 5.625 8.578125 C2.98605473 6.01530315 1.56201758 3.31928737 0 0 Z " fill="#D8D8D8" transform="translate(129,245)"/>
<path d="M0 0 C2.86933703 1.56901874 5.05797208 3.36048318 7 6 C7 6.66 7 7.32 7 8 C4.69 8 2.38 8 0 8 C-0.144375 7.195625 -0.28875 6.39125 -0.4375 5.5625 C-0.74135249 3.07896294 -0.74135249 3.07896294 -2 2 C-9.13632478 1.51618137 -13.0121733 3.00811554 -19 7 C-15.91484377 -1.13359371 -7.50432889 -1.2573216 0 0 Z " fill="#EFEFEF" transform="translate(152,212)"/>
<path d="M0 0 C0.66 0 1.32 0 2 0 C2.22171875 0.62648437 2.4434375 1.25296875 2.671875 1.8984375 C3.88004589 4.6737286 4.97568434 6.73459541 7 9 C10.17061915 10.0512439 13.03049957 10.42530391 16.35546875 10.68359375 C19 11 19 11 21 13 C14.4 12.34 7.8 11.68 1 11 C-0.28317892 7.15046324 -0.06643637 4.05261865 0 0 Z " fill="#5013C8" transform="translate(130,186)"/>
<path d="M0 0 C1.921875 0.10546875 1.921875 0.10546875 4 1 C5.265625 3.36328125 5.265625 3.36328125 6.25 6.3125 C6.75273437 7.76076172 6.75273437 7.76076172 7.265625 9.23828125 C8 12 8 12 8 16 C7.01 15.67 6.02 15.34 5 15 C5 14.01 5 13.02 5 12 C3.02 12 1.04 12 -1 12 C-1 11.67 -1 11.34 -1 11 C0.65 11 2.3 11 4 11 C3.01 9.02 2.02 7.04 1 5 C0.34 5.66 -0.32 6.32 -1 7 C-1.04254356 5.00045254 -1.04080783 2.99958364 -1 1 C-0.67 0.67 -0.34 0.34 0 0 Z " fill="#D1D1D1" transform="translate(127,279)"/>
<path d="M0 0 C0.99 0.33 1.98 0.66 3 1 C1.10835403 4.50227838 -0.78908075 8.00138913 -2.6875 11.5 C-3.21794922 12.48226562 -3.74839844 13.46453125 -4.29492188 14.4765625 C-7.35613748 20.11070165 -10.53700744 25.60312848 -14 31 C-14.66 30.67 -15.32 30.34 -16 30 C-15.62190186 29.33991943 -15.24380371 28.67983887 -14.85424805 27.99975586 C-13.12811486 24.98120592 -11.40776853 21.95939573 -9.6875 18.9375 C-9.09259766 17.89916016 -8.49769531 16.86082031 -7.88476562 15.79101562 C-4.94598949 10.61942633 -2.17642999 5.53928933 0 0 Z " fill="#11042B" transform="translate(232,150)"/>
<path d="M0 0 C2 0.9375 2 0.9375 4 3 C4.36475845 6.02534949 4.22893297 8.96663814 4 12 C0.76513406 11.29822123 -0.89181195 10.63523506 -3 8 C-3 7.34 -3 6.68 -3 6 C-2.34 6 -1.68 6 -1 6 C-1.0309375 4.7934375 -1.0309375 4.7934375 -1.0625 3.5625 C-1 1 -1 1 0 0 Z " fill="#5113CA" transform="translate(120,40)"/>
<path d="M0 0 C0.99 0 1.98 0 3 0 C3 5.28 3 10.56 3 16 C2.01 16 1.02 16 0 16 C0 10.72 0 5.44 0 0 Z " fill="#BFBFBF" transform="translate(209,279)"/>
<path d="M0 0 C0.66 0 1.32 0 2 0 C2 5.28 2 10.56 2 16 C1.34 16 0.68 16 0 16 C0 13.69 0 11.38 0 9 C-2.31 9 -4.62 9 -7 9 C-7.33 8.34 -7.66 7.68 -8 7 C-5.36 7 -2.72 7 0 7 C0 4.69 0 2.38 0 0 Z " fill="#F7F7F7" transform="translate(190,279)"/>
<path d="M0 0 C3.3 0.33 6.6 0.66 10 1 C10 1.33 10 1.66 10 2 C7.36 2 4.72 2 2 2 C2 3.98 2 5.96 2 8 C4.31 8 6.62 8 9 8 C9 8.33 9 8.66 9 9 C6.69 9 4.38 9 2 9 C2 11.31 2 13.62 2 16 C1.34 16 0.68 16 0 16 C0 10.72 0 5.44 0 0 Z " fill="#FDFDFD" transform="translate(96,279)"/>
<path d="M0 0 C0.66 0 1.32 0 2 0 C2.10152799 6.7685324 2.03026944 13.30324864 1 20 C0.67 20 0.34 20 0 20 C-0.07347656 18.93458984 -0.07347656 18.93458984 -0.1484375 17.84765625 C-0.26058594 16.46900391 -0.26058594 16.46900391 -0.375 15.0625 C-0.44460937 14.14597656 -0.51421875 13.22945312 -0.5859375 12.28515625 C-0.79089844 11.15400391 -0.79089844 11.15400391 -1 10 C-1.66 9.67 -2.32 9.34 -3 9 C-2.01 6.03 -1.02 3.06 0 0 Z " fill="#4510AC" transform="translate(234,122)"/>
<path d="M0 0 C6.6 0 13.2 0 20 0 C14.62367731 4.03224202 11.59106568 4.67047047 5 4 C1.9375 2.5625 1.9375 2.5625 0 1 C0 0.67 0 0.34 0 0 Z " fill="#4E13C3" transform="translate(175,22)"/>
<path d="M0 0 C1.14453125 1.5703125 1.14453125 1.5703125 2 4 C1.13671875 7.2421875 1.13671875 7.2421875 -0.3125 10.875 C-2.04978451 15.28246699 -3.3882978 19.29349127 -4 24 C-5.32 23.67 -6.64 23.34 -8 23 C-7.56042969 22.01902344 -7.12085938 21.03804687 -6.66796875 20.02734375 C-4.92253152 15.95465689 -3.59565167 11.79961413 -2.3125 7.5625 C-2.08755859 6.83095703 -1.86261719 6.09941406 -1.63085938 5.34570312 C-1.08380134 3.56485464 -0.54140628 1.78257483 0 0 Z " fill="#B4B4B4" transform="translate(218,233)"/>
<path d="M0 0 C2 1 2 1 2.6328125 2.75 C3.84418245 8.28769121 4.17993924 13.33191398 4 19 C3.01 19.33 2.02 19.66 1 20 C0.67 13.4 0.34 6.8 0 0 Z " fill="#1D0748" transform="translate(123,75)"/>
<path d="M0 0 C0.66 0.33 1.32 0.66 2 1 C2.21691118 4.18136394 2.25066255 6.43969547 0.9375 9.375 C-1 11 -1 11 -4.5625 11.3125 C-8 11 -8 11 -10 10 C-9.67 9.01 -9.34 8.02 -9 7 C-8.67 7.33 -8.34 7.66 -8 8 C-6.00041636 8.04080783 -3.99954746 8.04254356 -2 8 C-1.34 5.36 -0.68 2.72 0 0 Z " fill="#EAEAEA" transform="translate(240,284)"/>
<path d="M0 0 C0.66 0 1.32 0 2 0 C2 5.28 2 10.56 2 16 C0.68 15.67 -0.64 15.34 -2 15 C-1.67 14.01 -1.34 13.02 -1 12 C-0.77674186 9.94106379 -0.59294241 7.87766347 -0.4375 5.8125 C-0.35371094 4.72582031 -0.26992188 3.63914062 -0.18359375 2.51953125 C-0.12300781 1.68808594 -0.06242187 0.85664063 0 0 Z " fill="#F7F7F7" transform="translate(270,279)"/>
<path d="M0 0 C5.06998019 0.65419099 9.41990777 2.8546409 14 5 C13.67 5.66 13.34 6.32 13 7 C4.032 5.024 4.032 5.024 0 2 C0 1.34 0 0.68 0 0 Z " fill="#4A12BA" transform="translate(96,104)"/>
<path d="M0 0 C0.33 0 0.66 0 1 0 C1 3.63 1 7.26 1 11 C1.99 11.33 2.98 11.66 4 12 C2.515 17.445 2.515 17.445 1 23 C0.67 23 0.34 23 0 23 C0 15.41 0 7.82 0 0 Z " fill="#5013C8" transform="translate(239,60)"/>
<path d="M0 0 C1.875 1.375 1.875 1.375 3 3 C3 3.66 3 4.32 3 5 C0.03 4.01 -2.94 3.02 -6 2 C-6.33 3.32 -6.66 4.64 -7 6 C-7.99 6.495 -7.99 6.495 -9 7 C-9.1875 4.625 -9.1875 4.625 -9 2 C-5.53076119 -0.31282587 -4.07794425 -0.42478586 0 0 Z " fill="#CFCFCF" transform="translate(160,279)"/>
<path d="M0 0 C1.60294922 0.04060547 1.60294922 0.04060547 3.23828125 0.08203125 C4.04652344 0.11683594 4.85476562 0.15164062 5.6875 0.1875 C5.0275 0.8475 4.3675 1.5075 3.6875 2.1875 C1.71991132 2.15470686 -0.2477106 2.11995797 -2.21484375 2.06640625 C-6.54412602 2.31632757 -9.80748502 4.85082335 -13.3125 7.1875 C-10.94208896 0.93823453 -6.24971101 -0.20603443 0 0 Z " fill="#BDBDBD" transform="translate(146.3125,211.8125)"/>
<path d="M0 0 C0 0.33 0 0.66 0 1 C-1.72681437 1.50806447 -3.45657979 2.00610467 -5.1875 2.5 C-6.63189453 2.91765625 -6.63189453 2.91765625 -8.10546875 3.34375 C-10.85345876 3.96677608 -13.19598416 4.12302812 -16 4 C-13.21769572 2.14513048 -11.15636393 1.27537888 -8 0.3125 C-6.700625 -0.09548828 -6.700625 -0.09548828 -5.375 -0.51171875 C-3 -1 -3 -1 0 0 Z " fill="#160537" transform="translate(268,102)"/>
<path d="M0 0 C3.63 1.32 7.26 2.64 11 4 C11 4.66 11 5.32 11 6 C9.54096742 5.69078116 8.08279278 5.37751201 6.625 5.0625 C5.81289062 4.88847656 5.00078125 4.71445312 4.1640625 4.53515625 C2 4 2 4 0 3 C0 2.01 0 1.02 0 0 Z " fill="#DBDBDB" transform="translate(152,284)"/>
<path d="M0 0 C-1.875 3.875 -1.875 3.875 -3 5 C-5.33297433 5.04092937 -7.66705225 5.04241723 -10 5 C-10 4.34 -10 3.68 -10 3 C-8.70990357 2.49596232 -7.41786211 1.99690074 -6.125 1.5 C-5.04605469 1.08234375 -5.04605469 1.08234375 -3.9453125 0.65625 C-2 0 -2 0 0 0 Z " fill="#4D12C0" transform="translate(248,111)"/>
<path d="M0 0 C1.9451 2.91765 2.45276317 4.62537285 3 8 C1.35 8 -0.3 8 -2 8 C-1.34 5.36 -0.68 2.72 0 0 Z " fill="#101010" transform="translate(128,282)"/>
<path d="M0 0 C3.26008643 3.16952847 6.22237877 6.39937989 9 10 C8.67 10.66 8.34 11.32 8 12 C6.65772954 10.57084149 5.32642904 9.13137328 4 7.6875 C3.2575 6.88699219 2.515 6.08648437 1.75 5.26171875 C0 3 0 3 0 0 Z " fill="#10042A" transform="translate(150,159)"/>
<path d="M0 0 C1.5 1.25 1.5 1.25 3 3 C3 4.32 3 5.64 3 7 C2.01 6.67 1.02 6.34 0 6 C0 5.01 0 4.02 0 3 C-1.98 3 -3.96 3 -6 3 C-6 2.67 -6 2.34 -6 2 C-4.02 2 -2.04 2 0 2 C0 1.34 0 0.68 0 0 Z " fill="#E4E4E4" transform="translate(132,288)"/>
<path d="M0 0 C0.99 0.33 1.98 0.66 3 1 C3.125 3.875 3.125 3.875 3 7 C2.34 7.66 1.68 8.32 1 9 C-0.4783226 6.04335481 -0.06032783 3.25770263 0 0 Z " fill="#C4C4C4" transform="translate(228,284)"/>
<path d="M0 0 C0.99 0.33 1.98 0.66 3 1 C0.03 5.95 0.03 5.95 -3 11 C-3.33 10.34 -3.66 9.68 -4 9 C-3.22265625 6.8359375 -3.22265625 6.8359375 -2.0625 4.375 C-1.68222656 3.55773437 -1.30195313 2.74046875 -0.91015625 1.8984375 C-0.60980469 1.27195313 -0.30945313 0.64546875 0 0 Z " fill="#0C0320" transform="translate(232,150)"/>
<path d="M0 0 C3.43595166 1.52708963 6.11912454 3.59927045 9 6 C8.34 6.66 7.68 7.32 7 8 C1.125 3.375 1.125 3.375 0 0 Z " fill="#0D0322" transform="translate(115,47)"/>
<path d="M0 0 C4.2742558 1.5830577 6.26531794 4.50568404 9 8 C6 8 6 8 4.39453125 6.50390625 C3.61142578 5.54291016 3.61142578 5.54291016 2.8125 4.5625 C2.28269531 3.92441406 1.75289062 3.28632813 1.20703125 2.62890625 C0 1 0 1 0 0 Z " fill="#160537" transform="translate(159,20)"/>
<path d="M0 0 C1.15941038 3.47823115 0.70820884 5.45895578 0 9 C-1.32 8.67 -2.64 8.34 -4 8 C-2.68 5.36 -1.36 2.72 0 0 Z " fill="#C9C9C9" transform="translate(214,248)"/>
<path d="M0 0 C0.99 0.495 0.99 0.495 2 1 C2.40729228 3.32156597 2.74438677 5.6568787 3 8 C2.01 8 1.02 8 0 8 C0 5.36 0 2.72 0 0 Z " fill="#11042A" transform="translate(123,75)"/>
</svg>
